<svg width="24" height="24" viewBox="0 0 24 24" fill="none" xmlns="http://www.w3.org/2000/svg">
<path fill-rule="evenodd" clip-rule="evenodd" d="M16 5.7H8C6.72975 5.7 5.7 6.72975 5.7 8V16C5.7 17.2703 6.72975 18.3 8 18.3H16C17.2703 18.3 18.3 17.2703 18.3 16V8C18.3 6.72975 17.2703 5.7 16 5.7ZM8 4C5.79086 4 4 5.79086 4 8V16C4 18.2091 5.79086 20 8 20H16C18.2091 20 20 18.2091 20 16V8C20 5.79086 18.2091 4 16 4H8Z" fill="#94A3B8"/>
<path fill-rule="evenodd" clip-rule="evenodd" d="M16 9.7H8C6.72975 9.7 5.7 10.7297 5.7 12V16C5.7 17.2703 6.72975 18.3 8 18.3H16C17.2703 18.3 18.3 17.2703 18.3 16V12C18.3 10.7297 17.2703 9.7 16 9.7ZM8 8C5.79086 8 4 9.79086 4 12V16C4 18.2091 5.79086 20 8 20H16C18.2091 20 20 18.2091 20 16V12C20 9.79086 18.2091 8 16 8H8Z" fill="#94A3B8"/>
<path fill-rule="evenodd" clip-rule="evenodd" d="M9 6.84998C8.53056 6.84998 8.15 6.46942 8.15 5.99998V2.99998C8.15 2.53053 8.53056 2.14998 9 2.14998C9.46944 2.14998 9.85 2.53053 9.85 2.99998V5.99998C9.85 6.46942 9.46944 6.84998 9 6.84998Z" fill="#94A3B8"/>
<path fill-rule="evenodd" clip-rule="evenodd" d="M15 6.84998C14.5306 6.84998 14.15 6.46942 14.15 5.99998V2.99998C14.15 2.53053 14.5306 2.14998 15 2.14998C15.4694 2.14998 15.85 2.53053 15.85 2.99998V5.99998C15.85 6.46942 15.4694 6.84998 15 6.84998Z" fill="#94A3B8"/>
<path d="M8 13C8 12.4477 8.44772 12 9 12H11C11.5523 12 12 12.4477 12 13V15C12 15.5523 11.5523 16 11 16H9C8.44772 16 8 15.5523 8 15V13Z" fill="#94A3B8"/>
</svg>
