<svg width="24" height="24" viewBox="0 0 24 24" fill="none" xmlns="http://www.w3.org/2000/svg">
<path fill-rule="evenodd" clip-rule="evenodd" d="M6.49442 15.7599C5.82869 15.7599 5.18008 15.9709 4.64168 16.3624L4.47396 16.4844C3.57323 17.1395 4.0366 18.5644 5.15036 18.5644H12.6694C13.7832 18.5644 14.2466 17.1395 13.3458 16.4844L13.1781 16.3624C12.6397 15.9709 11.9911 15.7599 11.3254 15.7599H6.49442ZM3.64179 14.9876C4.47075 14.3847 5.46941 14.0599 6.49442 14.0599H11.3254C12.3504 14.0599 13.3491 14.3847 14.178 14.9876L14.3457 15.1095C16.578 16.733 15.4296 20.2644 12.6694 20.2644H5.15036C2.39019 20.2644 1.24182 16.733 3.47407 15.1095L3.64179 14.9876Z" fill="#94A3B8"/>
<path fill-rule="evenodd" clip-rule="evenodd" d="M8.9099 5.85002C7.38913 5.85002 6.1563 7.08285 6.1563 8.60363C6.1563 10.1244 7.38913 11.3572 8.9099 11.3572C10.4307 11.3572 11.6635 10.1244 11.6635 8.60363C11.6635 7.08285 10.4307 5.85002 8.9099 5.85002ZM4.4563 8.60363C4.4563 6.14397 6.45025 4.15002 8.9099 4.15002C11.3696 4.15002 13.3635 6.14397 13.3635 8.60363C13.3635 11.0633 11.3696 13.0572 8.9099 13.0572C6.45025 13.0572 4.4563 11.0633 4.4563 8.60363Z" fill="#94A3B8"/>
<path fill-rule="evenodd" clip-rule="evenodd" d="M16.3193 11.7938C15.903 11.7938 15.4974 11.9256 15.1608 12.1705C14.6244 12.5605 14.9004 13.4091 15.5636 13.4091H20.049C20.7122 13.4091 20.9882 12.5605 20.4518 12.1705C20.1152 11.9256 19.7096 11.7938 19.2934 11.7938H16.3193ZM14.455 11.2C14.9967 10.806 15.6494 10.5938 16.3193 10.5938H19.2934C19.9632 10.5938 20.6159 10.806 21.1576 11.2C22.6339 12.2736 21.8744 14.6091 20.049 14.6091H15.5636C13.7382 14.6091 12.9787 12.2736 14.455 11.2Z" fill="#94A3B8"/>
<path fill-rule="evenodd" clip-rule="evenodd" d="M17.8063 5.60002C16.8938 5.60002 16.154 6.33976 16.154 7.25228C16.154 8.16479 16.8938 8.90453 17.8063 8.90453C18.7188 8.90453 19.4585 8.16479 19.4585 7.25228C19.4585 6.33976 18.7188 5.60002 17.8063 5.60002ZM14.954 7.25228C14.954 5.67702 16.231 4.40002 17.8063 4.40002C19.3815 4.40002 20.6585 5.67702 20.6585 7.25228C20.6585 8.82753 19.3815 10.1045 17.8063 10.1045C16.231 10.1045 14.954 8.82753 14.954 7.25228Z" fill="#94A3B8"/>
</svg>
