<svg width="153" height="77" viewBox="0 0 153 77" fill="none" xmlns="http://www.w3.org/2000/svg">
<g clip-path="url(#clip0_41_2207)">
<path fill-rule="evenodd" clip-rule="evenodd" d="M1.98508 31.6936L20.3234 4.9302C22.4291 1.85691 25.9087 0.0206121 29.6266 0.0203637L392.712 1.37867e-08C398.947 -0.000305218 403.999 5.06773 404 11.3199L403.997 65.6583C403.995 71.9104 398.941 76.9791 392.709 76.9795L29.7073 77C25.9423 77.0001 22.4255 75.118 20.3302 71.9811L1.9098 44.4062C-0.6638 40.5536 -0.63396 35.516 1.98508 31.6936ZM21.3501 43.0388C24.4671 43.0387 26.994 40.5044 26.9942 37.3783C26.9944 34.2523 24.4676 31.7182 21.3507 31.7184C18.2338 31.7185 15.7068 34.253 15.7067 37.3789C15.7065 40.5051 18.2332 43.039 21.3501 43.0388Z" fill="#3B82F6"/>
<path d="M51.946 46L51.96 30.88H54.48V38.16L60.822 30.88H64.056L57.378 38.44L64.84 46H61.354L54.48 38.72V46H51.946ZM70.5314 46.42C69.4021 46.42 68.4548 46.2147 67.6894 45.804C66.9334 45.384 66.3594 44.8333 65.9674 44.152C65.5848 43.4707 65.3934 42.724 65.3934 41.912C65.3934 41.1187 65.5428 40.4327 65.8414 39.854C66.1494 39.266 66.5788 38.7807 67.1294 38.398C67.6801 38.006 68.3381 37.698 69.1034 37.474C69.8221 37.278 70.6248 37.11 71.5114 36.97C72.4074 36.8207 73.3128 36.6853 74.2274 36.564C75.1421 36.4427 75.9961 36.326 76.7894 36.214L75.8934 36.732C75.9214 35.388 75.6508 34.394 75.0814 33.75C74.5214 33.106 73.5508 32.784 72.1694 32.784C71.2548 32.784 70.4521 32.994 69.7614 33.414C69.0801 33.8247 68.5994 34.4967 68.3194 35.43L65.9534 34.716C66.3174 33.3907 67.0221 32.35 68.0674 31.594C69.1128 30.838 70.4894 30.46 72.1974 30.46C73.5694 30.46 74.7454 30.7073 75.7254 31.202C76.7148 31.6873 77.4241 32.4247 77.8534 33.414C78.0681 33.8807 78.2034 34.3893 78.2594 34.94C78.3154 35.4813 78.3434 36.0507 78.3434 36.648V46H76.1314V42.374L76.6494 42.71C76.0801 43.9327 75.2821 44.8567 74.2554 45.482C73.2381 46.1073 71.9968 46.42 70.5314 46.42ZM70.9094 44.334C71.8054 44.334 72.5801 44.1753 73.2334 43.858C73.8961 43.5313 74.4281 43.1067 74.8294 42.584C75.2308 42.052 75.4921 41.4733 75.6134 40.848C75.7534 40.3813 75.8281 39.8633 75.8374 39.294C75.8561 38.7153 75.8654 38.272 75.8654 37.964L76.7334 38.342C75.9214 38.454 75.1234 38.5613 74.3394 38.664C73.5554 38.7667 72.8134 38.8787 72.1134 39C71.4134 39.112 70.7834 39.2473 70.2234 39.406C69.8128 39.5367 69.4254 39.7047 69.0614 39.91C68.7068 40.1153 68.4174 40.3813 68.1934 40.708C67.9788 41.0253 67.8714 41.422 67.8714 41.898C67.8714 42.3087 67.9741 42.7007 68.1794 43.074C68.3941 43.4473 68.7208 43.7507 69.1594 43.984C69.6074 44.2173 70.1908 44.334 70.9094 44.334ZM88.9274 46.42C87.5088 46.42 86.3141 46.07 85.3434 45.37C84.3728 44.6607 83.6354 43.704 83.1314 42.5C82.6368 41.2867 82.3894 39.9287 82.3894 38.426C82.3894 36.9047 82.6368 35.542 83.1314 34.338C83.6354 33.134 84.3728 32.1867 85.3434 31.496C86.3234 30.8053 87.5228 30.46 88.9414 30.46C90.3414 30.46 91.5454 30.81 92.5534 31.51C93.5708 32.2007 94.3501 33.148 94.8914 34.352C95.4328 35.556 95.7034 36.914 95.7034 38.426C95.7034 39.938 95.4328 41.296 94.8914 42.5C94.3501 43.704 93.5708 44.6607 92.5534 45.37C91.5454 46.07 90.3368 46.42 88.9274 46.42ZM81.9694 52.72V30.88H84.1954V42.01H84.4754V52.72H81.9694ZM88.6194 44.138C89.6181 44.138 90.4441 43.886 91.0974 43.382C91.7508 42.878 92.2408 42.1967 92.5674 41.338C92.8941 40.47 93.0574 39.4993 93.0574 38.426C93.0574 37.362 92.8941 36.4007 92.5674 35.542C92.2501 34.6833 91.7554 34.002 91.0834 33.498C90.4208 32.994 89.5761 32.742 88.5494 32.742C87.5694 32.742 86.7574 32.9847 86.1134 33.47C85.4694 33.946 84.9888 34.6133 84.6714 35.472C84.3541 36.3213 84.1954 37.306 84.1954 38.426C84.1954 39.5273 84.3494 40.512 84.6574 41.38C84.9748 42.2387 85.4601 42.9153 86.1134 43.41C86.7668 43.8953 87.6021 44.138 88.6194 44.138ZM102.777 46V33.148H97.5125V30.88H110.533V33.148H105.269V46H102.777ZM116.988 46.42C115.859 46.42 114.912 46.2147 114.146 45.804C113.39 45.384 112.816 44.8333 112.424 44.152C112.042 43.4707 111.85 42.724 111.85 41.912C111.85 41.1187 112 40.4327 112.298 39.854C112.606 39.266 113.036 38.7807 113.586 38.398C114.137 38.006 114.795 37.698 115.56 37.474C116.279 37.278 117.082 37.11 117.968 36.97C118.864 36.8207 119.77 36.6853 120.684 36.564C121.599 36.4427 122.453 36.326 123.246 36.214L122.35 36.732C122.378 35.388 122.108 34.394 121.538 33.75C120.978 33.106 120.008 32.784 118.626 32.784C117.712 32.784 116.909 32.994 116.218 33.414C115.537 33.8247 115.056 34.4967 114.776 35.43L112.41 34.716C112.774 33.3907 113.479 32.35 114.524 31.594C115.57 30.838 116.946 30.46 118.654 30.46C120.026 30.46 121.202 30.7073 122.182 31.202C123.172 31.6873 123.881 32.4247 124.31 33.414C124.525 33.8807 124.66 34.3893 124.716 34.94C124.772 35.4813 124.8 36.0507 124.8 36.648V46H122.588V42.374L123.106 42.71C122.537 43.9327 121.739 44.8567 120.712 45.482C119.695 46.1073 118.454 46.42 116.988 46.42ZM117.366 44.334C118.262 44.334 119.037 44.1753 119.69 43.858C120.353 43.5313 120.885 43.1067 121.286 42.584C121.688 42.052 121.949 41.4733 122.07 40.848C122.21 40.3813 122.285 39.8633 122.294 39.294C122.313 38.7153 122.322 38.272 122.322 37.964L123.19 38.342C122.378 38.454 121.58 38.5613 120.796 38.664C120.012 38.7667 119.27 38.8787 118.57 39C117.87 39.112 117.24 39.2473 116.68 39.406C116.27 39.5367 115.882 39.7047 115.518 39.91C115.164 40.1153 114.874 40.3813 114.65 40.708C114.436 41.0253 114.328 41.422 114.328 41.898C114.328 42.3087 114.431 42.7007 114.636 43.074C114.851 43.4473 115.178 43.7507 115.616 43.984C116.064 44.2173 116.648 44.334 117.366 44.334Z" fill="white"/>
</g>
<defs>
<clipPath id="clip0_41_2207">
<rect width="153" height="77" rx="12" fill="white"/>
</clipPath>
</defs>
</svg>
