<svg width="173" height="44" viewBox="0 0 173 44" fill="none" xmlns="http://www.w3.org/2000/svg">
<path d="M18.304 21.82C19.6693 22.2253 20.7147 22.8867 21.44 23.804C22.1653 24.7213 22.528 25.852 22.528 27.196C22.528 29.18 21.7707 30.7267 20.256 31.836C18.7627 32.9453 16.6187 33.5 13.824 33.5H2.784V11.1H13.216C15.8187 11.1 17.8453 11.6013 19.296 12.604C20.7467 13.6067 21.472 15.036 21.472 16.892C21.472 18.0013 21.1947 18.9827 20.64 19.836C20.0853 20.668 19.3067 21.3293 18.304 21.82ZM7.936 20.38H12.768C13.8987 20.38 14.752 20.156 15.328 19.708C15.904 19.2387 16.192 18.556 16.192 17.66C16.192 16.7853 15.8933 16.1133 15.296 15.644C14.72 15.1747 13.8773 14.94 12.768 14.94H7.936V20.38ZM13.632 29.66C16.064 29.66 17.28 28.7 17.28 26.78C17.28 24.924 16.064 23.996 13.632 23.996H7.936V29.66H13.632Z" fill="#0F172A"/>
<path d="M35.2418 18.2434C31.4843 13.6628 30.5934 7.27139 34.715 3.08572C38.5232 -0.781813 44.0308 -0.384786 48.119 2.42207C49.2697 3.21211 50.8553 3.21213 52.006 2.4221C56.0942 -0.384742 61.6017 -0.781862 65.41 3.08572C69.5316 7.27139 68.6407 13.6628 64.8832 18.2434C61.1977 22.7362 56.2765 26.6544 51.5022 30.097C50.6423 30.7171 49.4827 30.7171 48.6228 30.097C43.8485 26.6544 38.9274 22.7362 35.2418 18.2434Z" fill="#3B82F6"/>
<circle cx="50.125" cy="38.875" r="4.875" fill="#3B82F6"/>
<path d="M99.325 11.1V33.5H94.173V15.324H84.061V33.5H78.909V11.1H99.325ZM124.75 11.1V26.492C124.75 29.8627 123.811 32.444 121.934 34.236C120.056 36.0493 117.464 36.956 114.158 36.956C112.259 36.956 110.52 36.6893 108.942 36.156C107.363 35.644 106.019 34.908 104.91 33.948L106.926 30.108C108.952 31.7507 111.32 32.572 114.03 32.572C115.907 32.572 117.294 32.1027 118.19 31.164C119.107 30.204 119.566 28.732 119.566 26.748V25.372C118.072 27.2067 115.96 28.124 113.23 28.124C110.392 28.124 108.206 27.324 106.67 25.724C105.155 24.1027 104.398 21.7773 104.398 18.748V11.1H109.582V18.428C109.582 20.1773 109.998 21.5 110.83 22.396C111.662 23.292 112.835 23.74 114.35 23.74C115.95 23.74 117.219 23.2707 118.158 22.332C119.096 21.3933 119.566 19.9747 119.566 18.076V11.1H124.75ZM146.835 17.372C144.915 16.2627 142.856 15.548 140.659 15.228V33.5H135.475V15.228C133.277 15.548 131.208 16.2627 129.267 17.372L127.507 13.5C129.043 12.5827 130.707 11.8893 132.499 11.42C134.291 10.9507 136.136 10.716 138.035 10.716C139.955 10.716 141.811 10.9507 143.603 11.42C145.416 11.8893 147.08 12.5827 148.595 13.5L146.835 17.372ZM162.346 17.852C165.034 17.852 167.157 18.5453 168.714 19.932C170.293 21.3187 171.082 23.26 171.082 25.756C171.082 28.3587 170.208 30.3747 168.458 31.804C166.709 33.2333 164.224 33.948 161.002 33.948C157.824 33.948 155.413 33.2333 153.77 31.804C152.128 30.3747 151.306 28.2733 151.306 25.5V11.1H156.426V19.164C158.453 18.2893 160.426 17.852 162.346 17.852ZM161.226 29.916C162.698 29.916 163.84 29.564 164.65 28.86C165.461 28.156 165.866 27.1747 165.866 25.916C165.866 24.6147 165.429 23.612 164.554 22.908C163.701 22.1827 162.56 21.82 161.13 21.82C160.341 21.82 159.53 21.948 158.698 22.204C157.866 22.4387 157.109 22.78 156.426 23.228V25.372C156.426 26.8227 156.842 27.9427 157.674 28.732C158.506 29.5213 159.69 29.916 161.226 29.916Z" fill="#0F172A"/>
</svg>
