<svg width="534" height="64" viewBox="0 0 534 64" fill="none" xmlns="http://www.w3.org/2000/svg">
<rect x="0.5" y="0.5" width="533" height="63" rx="11.5" fill="white"/>
<path fill-rule="evenodd" clip-rule="evenodd" d="M36 23.85C32.6035 23.85 29.85 26.6035 29.85 30C29.85 31.7496 30.5751 34.2266 31.7819 36.2671C32.3809 37.2798 33.0744 38.1429 33.8122 38.7441C34.5492 39.3446 35.2863 39.65 36 39.65C36.7137 39.65 37.4508 39.3446 38.1878 38.7441C38.9257 38.1429 39.6191 37.2798 40.2182 36.2671C41.425 34.2266 42.15 31.7496 42.15 30C42.15 26.6035 39.3966 23.85 36 23.85ZM28.15 30C28.15 25.6646 31.6646 22.15 36 22.15C40.3355 22.15 43.85 25.6646 43.85 30C43.85 32.1164 43.0081 34.8894 41.6814 37.1325C41.0136 38.2615 40.1987 39.2985 39.2616 40.062C38.3237 40.8262 37.2193 41.35 36 41.35C34.7807 41.35 33.6763 40.8262 32.7384 40.062C31.8013 39.2985 30.9864 38.2615 30.3187 37.1325C28.992 34.8894 28.15 32.1164 28.15 30Z" fill="#94A3B8"/>
<path fill-rule="evenodd" clip-rule="evenodd" d="M36 27.85C34.8126 27.85 33.85 28.8126 33.85 30C33.85 31.1874 34.8126 32.15 36 32.15C37.1874 32.15 38.15 31.1874 38.15 30C38.15 28.8126 37.1874 27.85 36 27.85ZM32.15 30C32.15 27.8737 33.8737 26.15 36 26.15C38.1263 26.15 39.85 27.8737 39.85 30C39.85 32.1263 38.1263 33.85 36 33.85C33.8737 33.85 32.15 32.1263 32.15 30Z" fill="#94A3B8"/>
<path d="M57.05 38V27.2H58.265L62.345 35.8025L66.4025 27.2H67.6325V37.9925H66.365V30.1325L62.6975 38H61.985L58.3175 30.1325V38H57.05ZM73.2455 38.225C72.4505 38.225 71.7555 38.05 71.1605 37.7C70.5705 37.345 70.1105 36.8525 69.7805 36.2225C69.4505 35.5875 69.2855 34.8475 69.2855 34.0025C69.2855 33.1175 69.448 32.3525 69.773 31.7075C70.098 31.0575 70.5505 30.5575 71.1305 30.2075C71.7155 29.8525 72.4005 29.675 73.1855 29.675C74.0005 29.675 74.693 29.8625 75.263 30.2375C75.838 30.6125 76.268 31.1475 76.553 31.8425C76.843 32.5375 76.968 33.365 76.928 34.325H75.578V33.845C75.563 32.85 75.3605 32.1075 74.9705 31.6175C74.5805 31.1225 74.0005 30.875 73.2305 30.875C72.4055 30.875 71.778 31.14 71.348 31.67C70.918 32.2 70.703 32.96 70.703 33.95C70.703 34.905 70.918 35.645 71.348 36.17C71.778 36.695 72.3905 36.9575 73.1855 36.9575C73.7205 36.9575 74.1855 36.835 74.5805 36.59C74.9755 36.345 75.2855 35.9925 75.5105 35.5325L76.793 35.975C76.478 36.69 76.003 37.245 75.368 37.64C74.738 38.03 74.0305 38.225 73.2455 38.225ZM70.253 34.325V33.2525H76.238V34.325H70.253ZM82.0104 38.225C81.1904 38.225 80.4929 38.0425 79.9179 37.6775C79.3479 37.3075 78.9129 36.8 78.6129 36.155C78.3129 35.51 78.1579 34.775 78.1479 33.95C78.1579 33.105 78.3154 32.3625 78.6204 31.7225C78.9304 31.0775 79.3729 30.575 79.9479 30.215C80.5229 29.855 81.2154 29.675 82.0254 29.675C82.8804 29.675 83.6154 29.885 84.2304 30.305C84.8504 30.725 85.2654 31.3 85.4754 32.03L84.1554 32.4275C83.9854 31.9575 83.7079 31.5925 83.3229 31.3325C82.9429 31.0725 82.5054 30.9425 82.0104 30.9425C81.4554 30.9425 80.9979 31.0725 80.6379 31.3325C80.2779 31.5875 80.0104 31.9425 79.8354 32.3975C79.6604 32.8475 79.5704 33.365 79.5654 33.95C79.5754 34.85 79.7829 35.5775 80.1879 36.1325C80.5979 36.6825 81.2054 36.9575 82.0104 36.9575C82.5404 36.9575 82.9804 36.8375 83.3304 36.5975C83.6804 36.3525 83.9454 36 84.1254 35.54L85.4754 35.8925C85.1954 36.6475 84.7579 37.225 84.1629 37.625C83.5679 38.025 82.8504 38.225 82.0104 38.225ZM89.0046 38V31.115H86.1846V29.9H93.1596V31.115H90.3396V38H89.0046ZM97.8828 38.225C97.0778 38.225 96.3828 38.0425 95.7978 37.6775C95.2178 37.3125 94.7703 36.8075 94.4553 36.1625C94.1403 35.5175 93.9828 34.7775 93.9828 33.9425C93.9828 33.0925 94.1428 32.3475 94.4628 31.7075C94.7828 31.0675 95.2353 30.57 95.8203 30.215C96.4053 29.855 97.0928 29.675 97.8828 29.675C98.6928 29.675 99.3903 29.8575 99.9753 30.2225C100.56 30.5825 101.008 31.085 101.318 31.73C101.633 32.37 101.79 33.1075 101.79 33.9425C101.79 34.7875 101.633 35.5325 101.318 36.1775C101.003 36.8175 100.553 37.32 99.9678 37.685C99.3828 38.045 98.6878 38.225 97.8828 38.225ZM97.8828 36.9575C98.7228 36.9575 99.3478 36.6775 99.7578 36.1175C100.168 35.5575 100.373 34.8325 100.373 33.9425C100.373 33.0275 100.165 32.3 99.7503 31.76C99.3353 31.215 98.7128 30.9425 97.8828 30.9425C97.3178 30.9425 96.8528 31.07 96.4878 31.325C96.1228 31.58 95.8503 31.9325 95.6703 32.3825C95.4903 32.8325 95.4003 33.3525 95.4003 33.9425C95.4003 34.8525 95.6103 35.5825 96.0303 36.1325C96.4503 36.6825 97.0678 36.9575 97.8828 36.9575ZM102.999 39.68L103.081 39.0575C103.291 39.0725 103.449 39.0325 103.554 38.9375C103.659 38.8425 103.726 38.7125 103.756 38.5475C103.786 38.3825 103.791 38.2 103.771 38H102.999V36.305H104.469V38.225C104.469 38.75 104.339 39.145 104.079 39.41C103.824 39.675 103.464 39.765 102.999 39.68ZM110.319 38L110.326 29.9H111.676V33.8L115.074 29.9H116.806L113.229 33.95L117.226 38H115.359L111.676 34.1V38H110.319ZM119.098 41.6L120.665 37.34L120.688 38.6L117.148 29.9H118.55L121.325 36.8975H120.845L123.448 29.9H124.805L120.395 41.6H119.098ZM125.151 39.8V36.8975C125.606 36.8975 125.931 36.75 126.126 36.455C126.321 36.155 126.479 35.6625 126.599 34.9775C126.679 34.5475 126.744 34.0875 126.794 33.5975C126.844 33.1075 126.886 32.5625 126.921 31.9625C126.961 31.3575 126.999 30.67 127.034 29.9H132.614V36.8975H133.401V39.8H132.126V38H126.426V39.8H125.151ZM127.206 36.8975H131.279V31.0025H128.241C128.226 31.3575 128.206 31.73 128.181 32.12C128.156 32.505 128.126 32.89 128.091 33.275C128.061 33.66 128.024 34.025 127.979 34.37C127.939 34.71 127.891 35.015 127.836 35.285C127.771 35.66 127.696 35.9775 127.611 36.2375C127.526 36.4975 127.391 36.7175 127.206 36.8975ZM137.209 38.225C136.604 38.225 136.096 38.115 135.686 37.895C135.281 37.67 134.974 37.375 134.764 37.01C134.559 36.645 134.456 36.245 134.456 35.81C134.456 35.385 134.536 35.0175 134.696 34.7075C134.861 34.3925 135.091 34.1325 135.386 33.9275C135.681 33.7175 136.034 33.5525 136.444 33.4325C136.829 33.3275 137.259 33.2375 137.734 33.1625C138.214 33.0825 138.699 33.01 139.189 32.945C139.679 32.88 140.136 32.8175 140.561 32.7575L140.081 33.035C140.096 32.315 139.951 31.7825 139.646 31.4375C139.346 31.0925 138.826 30.92 138.086 30.92C137.596 30.92 137.166 31.0325 136.796 31.2575C136.431 31.4775 136.174 31.8375 136.024 32.3375L134.756 31.955C134.951 31.245 135.329 30.6875 135.889 30.2825C136.449 29.8775 137.186 29.675 138.101 29.675C138.836 29.675 139.466 29.8075 139.991 30.0725C140.521 30.3325 140.901 30.7275 141.131 31.2575C141.246 31.5075 141.319 31.78 141.349 32.075C141.379 32.365 141.394 32.67 141.394 32.99V38H140.209V36.0575L140.486 36.2375C140.181 36.8925 139.754 37.3875 139.204 37.7225C138.659 38.0575 137.994 38.225 137.209 38.225ZM137.411 37.1075C137.891 37.1075 138.306 37.0225 138.656 36.8525C139.011 36.6775 139.296 36.45 139.511 36.17C139.726 35.885 139.866 35.575 139.931 35.24C140.006 34.99 140.046 34.7125 140.051 34.4075C140.061 34.0975 140.066 33.86 140.066 33.695L140.531 33.8975C140.096 33.9575 139.669 34.015 139.249 34.07C138.829 34.125 138.431 34.185 138.056 34.25C137.681 34.31 137.344 34.3825 137.044 34.4675C136.824 34.5375 136.616 34.6275 136.421 34.7375C136.231 34.8475 136.076 34.99 135.956 35.165C135.841 35.335 135.784 35.5475 135.784 35.8025C135.784 36.0225 135.839 36.2325 135.949 36.4325C136.064 36.6325 136.239 36.795 136.474 36.92C136.714 37.045 137.026 37.1075 137.411 37.1075ZM145.447 38L148.544 33.905L145.514 29.9H147.104L149.324 32.87L151.522 29.9H153.112L150.082 33.905L153.187 38H151.589L149.324 34.94L147.044 38H145.447ZM157.546 38.225C156.741 38.225 156.046 38.0425 155.461 37.6775C154.881 37.3125 154.433 36.8075 154.118 36.1625C153.803 35.5175 153.646 34.7775 153.646 33.9425C153.646 33.0925 153.806 32.3475 154.126 31.7075C154.446 31.0675 154.898 30.57 155.483 30.215C156.068 29.855 156.756 29.675 157.546 29.675C158.356 29.675 159.053 29.8575 159.638 30.2225C160.223 30.5825 160.671 31.085 160.981 31.73C161.296 32.37 161.453 33.1075 161.453 33.9425C161.453 34.7875 161.296 35.5325 160.981 36.1775C160.666 36.8175 160.216 37.32 159.631 37.685C159.046 38.045 158.351 38.225 157.546 38.225ZM157.546 36.9575C158.386 36.9575 159.011 36.6775 159.421 36.1175C159.831 35.5575 160.036 34.8325 160.036 33.9425C160.036 33.0275 159.828 32.3 159.413 31.76C158.998 31.215 158.376 30.9425 157.546 30.9425C156.981 30.9425 156.516 31.07 156.151 31.325C155.786 31.58 155.513 31.9325 155.333 32.3825C155.153 32.8325 155.063 33.3525 155.063 33.9425C155.063 34.8525 155.273 35.5825 155.693 36.1325C156.113 36.6825 156.731 36.9575 157.546 36.9575ZM165.074 38V31.115H162.254V29.9H169.229V31.115H166.409V38H165.074ZM177.279 29.9V38H175.989V32.03L171.744 38H170.641V29.9H171.931V35.7875L176.184 29.9H177.279ZM181.524 38V31.115H178.704V29.9H185.679V31.115H182.859V38H181.524ZM190.609 38.225C189.814 38.225 189.119 38.05 188.524 37.7C187.934 37.345 187.474 36.8525 187.144 36.2225C186.814 35.5875 186.649 34.8475 186.649 34.0025C186.649 33.1175 186.811 32.3525 187.136 31.7075C187.461 31.0575 187.914 30.5575 188.494 30.2075C189.079 29.8525 189.764 29.675 190.549 29.675C191.364 29.675 192.056 29.8625 192.626 30.2375C193.201 30.6125 193.631 31.1475 193.916 31.8425C194.206 32.5375 194.331 33.365 194.291 34.325H192.941V33.845C192.926 32.85 192.724 32.1075 192.334 31.6175C191.944 31.1225 191.364 30.875 190.594 30.875C189.769 30.875 189.141 31.14 188.711 31.67C188.281 32.2 188.066 32.96 188.066 33.95C188.066 34.905 188.281 35.645 188.711 36.17C189.141 36.695 189.754 36.9575 190.549 36.9575C191.084 36.9575 191.549 36.835 191.944 36.59C192.339 36.345 192.649 35.9925 192.874 35.5325L194.156 35.975C193.841 36.69 193.366 37.245 192.731 37.64C192.101 38.03 191.394 38.225 190.609 38.225ZM187.616 34.325V33.2525H193.601V34.325H187.616ZM198.957 38V29.9H205.594V38H204.259V31.1675H200.292V38H198.957ZM211.145 38.225C210.34 38.225 209.645 38.0425 209.06 37.6775C208.48 37.3125 208.032 36.8075 207.717 36.1625C207.402 35.5175 207.245 34.7775 207.245 33.9425C207.245 33.0925 207.405 32.3475 207.725 31.7075C208.045 31.0675 208.497 30.57 209.082 30.215C209.667 29.855 210.355 29.675 211.145 29.675C211.955 29.675 212.652 29.8575 213.237 30.2225C213.822 30.5825 214.27 31.085 214.58 31.73C214.895 32.37 215.052 33.1075 215.052 33.9425C215.052 34.7875 214.895 35.5325 214.58 36.1775C214.265 36.8175 213.815 37.32 213.23 37.685C212.645 38.045 211.95 38.225 211.145 38.225ZM211.145 36.9575C211.985 36.9575 212.61 36.6775 213.02 36.1175C213.43 35.5575 213.635 34.8325 213.635 33.9425C213.635 33.0275 213.427 32.3 213.012 31.76C212.597 31.215 211.975 30.9425 211.145 30.9425C210.58 30.9425 210.115 31.07 209.75 31.325C209.385 31.58 209.112 31.9325 208.932 32.3825C208.752 32.8325 208.662 33.3525 208.662 33.9425C208.662 34.8525 208.872 35.5825 209.292 36.1325C209.712 36.6825 210.33 36.9575 211.145 36.9575ZM220.213 38.225C219.418 38.225 218.723 38.05 218.128 37.7C217.538 37.345 217.078 36.8525 216.748 36.2225C216.418 35.5875 216.253 34.8475 216.253 34.0025C216.253 33.1175 216.416 32.3525 216.741 31.7075C217.066 31.0575 217.518 30.5575 218.098 30.2075C218.683 29.8525 219.368 29.675 220.153 29.675C220.968 29.675 221.661 29.8625 222.231 30.2375C222.806 30.6125 223.236 31.1475 223.521 31.8425C223.811 32.5375 223.936 33.365 223.896 34.325H222.546V33.845C222.531 32.85 222.328 32.1075 221.938 31.6175C221.548 31.1225 220.968 30.875 220.198 30.875C219.373 30.875 218.746 31.14 218.316 31.67C217.886 32.2 217.671 32.96 217.671 33.95C217.671 34.905 217.886 35.645 218.316 36.17C218.746 36.695 219.358 36.9575 220.153 36.9575C220.688 36.9575 221.153 36.835 221.548 36.59C221.943 36.345 222.253 35.9925 222.478 35.5325L223.761 35.975C223.446 36.69 222.971 37.245 222.336 37.64C221.706 38.03 220.998 38.225 220.213 38.225ZM217.221 34.325V33.2525H223.206V34.325H217.221ZM224.373 38L227.47 33.905L224.44 29.9H226.03L228.25 32.87L230.448 29.9H232.038L229.008 33.905L232.113 38H230.515L228.25 34.94L225.97 38H224.373ZM235.324 38.225C234.719 38.225 234.212 38.115 233.802 37.895C233.397 37.67 233.089 37.375 232.879 37.01C232.674 36.645 232.572 36.245 232.572 35.81C232.572 35.385 232.652 35.0175 232.812 34.7075C232.977 34.3925 233.207 34.1325 233.502 33.9275C233.797 33.7175 234.149 33.5525 234.559 33.4325C234.944 33.3275 235.374 33.2375 235.849 33.1625C236.329 33.0825 236.814 33.01 237.304 32.945C237.794 32.88 238.252 32.8175 238.677 32.7575L238.197 33.035C238.212 32.315 238.067 31.7825 237.762 31.4375C237.462 31.0925 236.942 30.92 236.202 30.92C235.712 30.92 235.282 31.0325 234.912 31.2575C234.547 31.4775 234.289 31.8375 234.139 32.3375L232.872 31.955C233.067 31.245 233.444 30.6875 234.004 30.2825C234.564 29.8775 235.302 29.675 236.217 29.675C236.952 29.675 237.582 29.8075 238.107 30.0725C238.637 30.3325 239.017 30.7275 239.247 31.2575C239.362 31.5075 239.434 31.78 239.464 32.075C239.494 32.365 239.509 32.67 239.509 32.99V38H238.324V36.0575L238.602 36.2375C238.297 36.8925 237.869 37.3875 237.319 37.7225C236.774 38.0575 236.109 38.225 235.324 38.225ZM235.527 37.1075C236.007 37.1075 236.422 37.0225 236.772 36.8525C237.127 36.6775 237.412 36.45 237.627 36.17C237.842 35.885 237.982 35.575 238.047 35.24C238.122 34.99 238.162 34.7125 238.167 34.4075C238.177 34.0975 238.182 33.86 238.182 33.695L238.647 33.8975C238.212 33.9575 237.784 34.015 237.364 34.07C236.944 34.125 236.547 34.185 236.172 34.25C235.797 34.31 235.459 34.3825 235.159 34.4675C234.939 34.5375 234.732 34.6275 234.537 34.7375C234.347 34.8475 234.192 34.99 234.072 35.165C233.957 35.335 233.899 35.5475 233.899 35.8025C233.899 36.0225 233.954 36.2325 234.064 36.4325C234.179 36.6325 234.354 36.795 234.589 36.92C234.829 37.045 235.142 37.1075 235.527 37.1075ZM243.604 38V31.115H240.784V29.9H247.759V31.115H244.939V38H243.604ZM249.179 38L249.171 29.9H250.514V32.8325H252.261C252.496 32.8325 252.736 32.8375 252.981 32.8475C253.226 32.8575 253.439 32.88 253.619 32.915C254.039 32.995 254.406 33.135 254.721 33.335C255.036 33.535 255.281 33.8075 255.456 34.1525C255.631 34.4925 255.719 34.915 255.719 35.42C255.719 36.12 255.536 36.675 255.171 37.085C254.811 37.49 254.339 37.76 253.754 37.895C253.554 37.94 253.324 37.97 253.064 37.985C252.809 37.995 252.566 38 252.336 38H249.179ZM250.514 36.8975H252.359C252.509 36.8975 252.676 36.8925 252.861 36.8825C253.046 36.8725 253.211 36.8475 253.356 36.8075C253.611 36.7325 253.839 36.585 254.039 36.365C254.244 36.145 254.346 35.83 254.346 35.42C254.346 35.005 254.246 34.685 254.046 34.46C253.851 34.235 253.594 34.0875 253.274 34.0175C253.129 33.9825 252.976 33.96 252.816 33.95C252.656 33.94 252.504 33.935 252.359 33.935H250.514V36.8975Z" fill="#94A3B8"/>
<rect x="0.5" y="0.5" width="533" height="63" rx="11.5" stroke="#E2E8F0"/>
</svg>
